<svg xmlns="http://www.w3.org/2000/svg" viewBox="0 0 547 285">
<path fill="#F26201" d="M2585 2650 c-71 -27 -265 -98 -430 -158 l-300 -108 -3 -94 c-1 -51 1
-96 5 -100 4 -4 179 55 388 131 209 77 383 139 387 139 5 0 8 -173 8 -384 l0
-384 -52 -18 c-29 -9 -161 -57 -292 -106 -131 -48 -243 -88 -247 -88 -5 0 -9
61 -9 135 0 78 -4 135 -9 135 -6 0 -48 -14 -95 -31 l-86 -31 0 -239 c0 -165 3
-239 11 -239 6 0 72 23 147 51 76 28 236 87 357 131 121 43 255 92 298 108
l77 29 78 -29 c76 -28 356 -130 482 -175 36 -13 119 -44 185 -69 66 -25 126
-46 133 -46 10 0 12 120 10 586 l-3 586 -130 48 c-489 179 -745 270 -761 269
-10 0 -77 -22 -149 -49z m471 -263 c110 -41 235 -87 279 -102 44 -16 86 -33
93 -38 8 -7 12 -48 12 -143 0 -118 -2 -134 -17 -134 -15 0 -272 90 -488 171
l-100 37 -3 141 c-2 116 0 141 11 141 8 0 104 -33 213 -73z m199 -567 l180
-65 3 -125 c1 -68 0 -130 -2 -137 -5 -13 -77 10 -441 144 l-160 59 -3 124 c-1
68 0 130 2 137 5 13 42 1 421 -137z"/>
<path fill="#F26201" d="M1103 813 c9 -2 23 -2 30 0 6 3 -1 5 -18 5 -16 0 -22 -2 -12 -5z"/>
<path fill="#F26201" d="M1908 813 c7 -3 16 -2 19 1 4 3 -2 6 -13 5 -11 0 -14 -3 -6 -6z"/>
<path fill="#F26201" d="M3318 813 c12 -2 32 -2 45 0 12 2 2 4 -23 4 -25 0 -35 -2 -22 -4z"/>
<path fill="#F26201" d="M3468 813 c6 -2 18 -2 25 0 6 3 1 5 -13 5 -14 0 -19 -2 -12 -5z"/>
<path fill="#F26201" d="M4198 813 c7 -3 16 -2 19 1 4 3 -2 6 -13 5 -11 0 -14 -3 -6 -6z"/>
<path fill="#F26201" d="M4288 813 c6 -2 18 -2 25 0 6 3 1 5 -13 5 -14 0 -19 -2 -12 -5z"/>
<path fill="#F26201" d="M4833 813 c9 -2 23 -2 30 0 6 3 -1 5 -18 5 -16 0 -22 -2 -12 -5z"/>
<path fill="#F26201" d="M4968 813 c7 -3 16 -2 19 1 4 3 -2 6 -13 5 -11 0 -14 -3 -6 -6z"/>
<path fill="#F26201" d="M3847 803 c-3 -5 18 -7 46 -5 92 5 104 9 30 11 -39 0 -74 -2 -76 -6z"/>
<path fill="#F26201" d="M5208 803 c23 -2 59 -2 80 0 20 2 1 4 -43 4 -44 0 -61 -2 -37 -4z"/>
<path fill="#F26201" d="M719 733 c-13 -16 -12 -17 4 -4 9 7 17 15 17 17 0 8 -8 3 -21 -13z"/>
<path fill="#F26201" d="M1350 746 c0 -2 8 -10 18 -17 15 -13 16 -12 3 4 -13 16 -21 21 -21
13z"/>
<path fill="#F26201" d="M1023 653 c9 -2 23 -2 30 0 6 3 -1 5 -18 5 -16 0 -22 -2 -12 -5z"/>
<path fill="#F26201" d="M3393 653 c9 -2 25 -2 35 0 9 3 1 5 -18 5 -19 0 -27 -2 -17 -5z"/>
<path fill="#F26201" d="M1993 643 c9 -2 23 -2 30 0 6 3 -1 5 -18 5 -16 0 -22 -2 -12 -5z"/>
<path fill="#F26201" d="M5120 646 c0 -2 7 -7 16 -10 8 -3 12 -2 9 4 -6 10 -25 14 -25 6z"/>
<path fill="#F26201" d="M1923 623 c9 -2 23 -2 30 0 6 3 -1 5 -18 5 -16 0 -22 -2 -12 -5z"/>
<path fill="#F26201" d="M673 565 c0 -33 2 -45 4 -27 2 18 2 45 0 60 -2 15 -4 0 -4 -33z"/>
<path fill="#F26201" d="M4044 598 l-19 -23 23 19 c12 11 22 21 22 23 0 8 -8 2 -26 -19z"/>
<path fill="#F26201" d="M1413 560 c0 -30 2 -43 4 -27 2 15 2 39 0 55 -2 15 -4 2 -4 -28z"/>
<path fill="#F26201" d="M1500 576 c0 -2 8 -10 18 -17 15 -13 16 -12 3 4 -13 16 -21 21 -21
13z"/>
<path fill="#F26201" d="M4544 445 c0 -60 1 -84 3 -52 2 32 2 81 0 110 -2 29 -3 3 -3 -58z"/>
<path fill="#F26201" d="M4374 435 c0 -55 1 -76 3 -47 2 29 2 74 0 100 -2 26 -3 2 -3 -53z"/>
<path fill="#F26201" d="M1668 513 c6 -2 18 -2 25 0 6 3 1 5 -13 5 -14 0 -19 -2 -12 -5z"/>
<path fill="#F26201" d="M1878 503 c7 -3 16 -2 19 1 4 3 -2 6 -13 5 -11 0 -14 -3 -6 -6z"/>
<path fill="#F26201" d="M5321 444 c0 -11 3 -14 6 -6 3 7 2 16 -1 19 -3 4 -6 -2 -5 -13z"/>
<path fill="#F26201" d="M1788 443 c23 -2 61 -2 85 0 23 2 4 4 -43 4 -47 0 -66 -2 -42 -4z"/>
<path fill="#F26201" d="M534 398 l-19 -23 23 19 c21 18 27 26 19 26 -2 0 -12 -10 -23 -22z"/>
<path fill="#F26201" d="M3719 393 l-24 -28 28 24 c15 14 27 26 27 28 0 8 -8 1 -31 -24z"/>
<path fill="#F26201" d="M1500 396 c0 -2 8 -10 18 -17 15 -13 16 -12 3 4 -13 16 -21 21 -21
13z"/>
<path fill="#F26201" d="M2919 383 c-13 -16 -12 -17 4 -4 16 13 21 21 13 21 -2 0 -10 -8 -17
-17z"/>
<path fill="#F26201" d="M4828 373 c6 -2 18 -2 25 0 6 3 1 5 -13 5 -14 0 -19 -2 -12 -5z"/>
<path fill="#F26201" d="M1793 313 c20 -2 54 -2 75 0 20 2 3 4 -38 4 -41 0 -58 -2 -37 -4z"/>
<path fill="#F26201" d="M4943 293 c9 -2 25 -2 35 0 9 3 1 5 -18 5 -19 0 -27 -2 -17 -5z"/>
<path fill="#F26201" d="M5244 228 l-19 -23 23 19 c12 11 22 21 22 23 0 8 -8 2 -26 -19z"/>
<path fill="#FFFFFF" d="M437 983 c-4 -3 -7 -91 -7 -195 0 -198 -7 -236 -47 -254 -10 -4 -65
-10 -123 -13 l-105 -6 0 -90 0 -90 130 0 c153 0 205 15 259 75 54 60 59 90 63
348 l4 232 -84 0 c-46 0 -87 -3 -90 -7z"/>
<path fill="#FFFFFF" d="M2230 655 l0 -325 288 0 c166 0 303 4 324 10 48 14 97 55 114 97 8
18 14 58 14 89 0 67 -25 116 -70 136 -32 14 -37 23 -19 34 20 12 49 89 49 132
0 67 -21 106 -72 131 -42 20 -58 21 -336 21 l-292 0 0 -325z m494 149 c19 -7
21 -55 4 -72 -8 -8 -59 -12 -165 -12 l-153 0 0 45 0 45 149 0 c82 0 156 -3
165 -6z m27 -204 c13 -7 19 -21 19 -45 0 -24 -6 -38 -19 -45 -11 -6 -89 -10
-180 -10 l-161 0 0 55 0 55 161 0 c91 0 169 -4 180 -10z"/>
<path fill="#FFFFFF" d="M920 809 c-118 -15 -199 -60 -226 -126 -8 -19 -14 -68 -14 -120 0
-101 21 -151 79 -190 60 -40 106 -48 286 -48 229 0 298 24 346 117 18 35 20
55 17 139 -2 80 -7 103 -24 126 -29 39 -79 71 -138 88 -62 18 -238 25 -326 14z
m273 -171 c32 -12 47 -36 47 -73 0 -67 -41 -85 -195 -85 -156 0 -195 18 -195
88 0 52 30 76 102 83 80 7 205 1 241 -13z"/>
<path fill="#FFFFFF" d="M1667 811 c-79 -11 -148 -48 -170 -91 -36 -71 2 -165 77 -189 17 -6
116 -15 221 -21 188 -10 218 -18 194 -46 -14 -17 -144 -28 -235 -19 -56 5 -80
12 -92 26 -14 16 -30 19 -101 19 l-84 0 6 -37 c8 -48 59 -97 119 -115 29 -9
105 -13 233 -13 177 0 193 2 236 23 59 29 79 51 90 102 13 58 -4 113 -42 141
-33 23 -153 37 -329 39 -103 0 -130 7 -130 30 0 26 19 30 156 30 111 0 126 -2
144 -20 17 -17 33 -20 104 -20 l84 0 -9 38 c-10 48 -54 87 -121 107 -62 19
-265 28 -351 16z"/>
<path fill="#FFFFFF" d="M3297 810 c-113 -11 -186 -44 -225 -103 -25 -37 -27 -49 -27 -136 0
-140 33 -191 150 -232 54 -19 349 -19 422 -1 71 19 136 76 153 136 16 59 9
171 -15 220 -46 96 -216 138 -458 116z m246 -166 c41 -8 57 -30 57 -78 0 -74
-16 -81 -191 -81 -138 0 -150 1 -170 21 -28 29 -28 89 0 118 32 31 188 41 304
20z"/>
<path fill="#FFFFFF" d="M4180 810 c-61 -10 -109 -32 -143 -64 -15 -14 -30 -26 -33 -26 -2 0
-4 18 -4 40 l0 41 -77 -3 -78 -3 0 -230 0 -230 82 -3 81 -3 4 108 c4 130 16
159 78 191 39 20 57 23 132 20 79 -3 90 -6 113 -29 34 -33 44 -81 45 -196 l0
-93 80 0 80 0 0 138 c0 203 -30 279 -128 320 -54 23 -167 34 -232 22z"/>
<path fill="#FFFFFF" d="M4813 810 c-92 -13 -152 -46 -181 -100 -20 -39 -23 -56 -20 -126 4
-97 29 -143 96 -174 107 -51 318 -48 409 6 35 20 43 22 43 9 0 -30 -28 -84
-53 -100 -68 -44 -262 -39 -304 10 -20 23 -29 25 -103 25 -89 0 -89 0 -70 -72
13 -45 75 -103 127 -118 87 -24 194 -33 283 -21 105 13 147 30 200 77 69 62
81 114 88 362 l5 212 -88 0 c-76 0 -86 -2 -81 -16 11 -28 -5 -35 -31 -14 -14
11 -42 24 -62 29 -56 15 -189 20 -258 11z m333 -175 c22 -30 14 -77 -16 -92
-34 -17 -276 -17 -310 0 -19 9 -26 22 -28 50 -5 57 27 68 201 65 125 -3 140
-5 153 -23z"/>
</svg>
