<svg xmlns="http://www.w3.org/2000/svg" viewBox="0 0 733 172">
<path fill="#F26201" d="M576 1420 c-225 -82 -414 -154 -418 -158 -5 -5 -6 -50 -2 -100 l7
-90 81 30 c285 105 655 238 664 238 9 0 12 -96 12 -365 0 -337 -1 -365 -17
-374 -10 -5 -126 -48 -258 -95 -132 -48 -250 -91 -263 -96 -13 -6 -27 -10 -32
-10 -6 0 -10 54 -10 130 0 72 -3 130 -7 130 -14 0 -158 -53 -171 -63 -9 -7
-12 -66 -12 -233 0 -195 2 -224 15 -224 9 0 193 65 409 144 216 80 404 148
417 151 23 6 77 -12 344 -110 55 -20 136 -49 180 -65 44 -15 135 -49 203 -74
68 -25 129 -46 137 -46 13 0 15 77 15 559 0 371 -3 562 -10 566 -6 4 -52 21
-103 40 -50 18 -235 85 -410 149 -174 64 -327 116 -340 115 -12 0 -206 -67
-431 -149z m825 -181 l279 -102 0 -137 0 -138 -97 33 c-93 32 -220 77 -398
142 l-80 29 -3 137 c-2 96 1 137 9 137 6 0 136 -46 290 -101z m4 -478 l270
-98 3 -131 c2 -82 -1 -132 -7 -132 -6 0 -20 4 -33 10 -22 9 -283 104 -433 157
-114 41 -105 26 -105 174 0 120 1 130 18 125 9 -4 139 -51 287 -105z"/>
<path fill="#F26201" d="M4333 1253 c75 -2 199 -2 275 0 75 1 13 3 -138 3 -151 0 -213 -2
-137 -3z"/>
<path fill="#F26201" d="M3048 1093 c12 -2 32 -2 45 0 12 2 2 4 -23 4 -25 0 -35 -2 -22 -4z"/>
<path fill="#F26201" d="M3738 1093 c17 -2 47 -2 65 0 17 2 3 4 -33 4 -36 0 -50 -2 -32 -4z"/>
<path fill="#F26201" d="M3848 1093 c6 -2 18 -2 25 0 6 3 1 5 -13 5 -14 0 -19 -2 -12 -5z"/>
<path fill="#F26201" d="M5318 1093 c12 -2 30 -2 40 0 9 3 -1 5 -23 4 -22 0 -30 -2 -17 -4z"/>
<path fill="#F26201" d="M6133 1093 c9 -2 23 -2 30 0 6 3 -1 5 -18 5 -16 0 -22 -2 -12 -5z"/>
<path fill="#F26201" d="M6763 1093 c9 -2 23 -2 30 0 6 3 -1 5 -18 5 -16 0 -22 -2 -12 -5z"/>
<path fill="#F26201" d="M4692 1050 c0 -14 2 -19 5 -12 2 6 2 18 0 25 -3 6 -5 1 -5 -13z"/>
<path fill="#F26201" d="M5902 1040 c0 -14 2 -19 5 -12 2 6 2 18 0 25 -3 6 -5 1 -5 -13z"/>
<path fill="#F26201" d="M7184 895 c0 -93 2 -133 3 -88 2 45 2 122 0 170 -1 48 -3 12 -3 -82z"/>
<path fill="#F26201" d="M2754 1018 l-19 -23 23 19 c21 18 27 26 19 26 -2 0 -12 -10 -23 -22z"/>
<path fill="#F26201" d="M3483 945 c0 -22 2 -30 4 -17 2 12 2 30 0 40 -3 9 -5 -1 -4 -23z"/>
<path fill="#F26201" d="M3773 973 c15 -2 39 -2 55 0 15 2 2 4 -28 4 -30 0 -43 -2 -27 -4z"/>
<path fill="#F26201" d="M6088 933 c12 -2 32 -2 45 0 12 2 2 4 -23 4 -25 0 -35 -2 -22 -4z"/>
<path fill="#F26201" d="M3768 913 c12 -2 32 -2 45 0 12 2 2 4 -23 4 -25 0 -35 -2 -22 -4z"/>
<path fill="#F26201" d="M2641 884 c0 -11 3 -14 6 -6 3 7 2 16 -1 19 -3 4 -6 -2 -5 -13z"/>
<path fill="#F26201" d="M6661 884 c0 -11 3 -14 6 -6 3 7 2 16 -1 19 -3 4 -6 -2 -5 -13z"/>
<path fill="#F26201" d="M5522 850 c0 -19 2 -27 5 -17 2 9 2 25 0 35 -3 9 -5 1 -5 -18z"/>
<path fill="#F26201" d="M5152 845 c0 -16 2 -22 5 -12 2 9 2 23 0 30 -3 6 -5 -1 -5 -18z"/>
<path fill="#F26201" d="M5691 804 c0 -11 3 -14 6 -6 3 7 2 16 -1 19 -3 4 -6 -2 -5 -13z"/>
<path fill="#F26201" d="M6833 813 c9 -2 23 -2 30 0 6 3 -1 5 -18 5 -16 0 -22 -2 -12 -5z"/>
<path fill="#F26201" d="M3628 803 c7 -3 16 -2 19 1 4 3 -2 6 -13 5 -11 0 -14 -3 -6 -6z"/>
<path fill="#F26201" d="M3848 793 c12 -2 30 -2 40 0 9 3 -1 5 -23 4 -22 0 -30 -2 -17 -4z"/>
<path fill="#F26201" d="M3966 777 c3 -10 9 -15 12 -12 3 3 0 11 -7 18 -10 9 -11 8 -5 -6z"/>
<path fill="#F26201" d="M3763 733 c9 -2 25 -2 35 0 9 3 1 5 -18 5 -19 0 -27 -2 -17 -5z"/>
<path fill="#F26201" d="M3843 733 c9 -2 23 -2 30 0 6 3 -1 5 -18 5 -16 0 -22 -2 -12 -5z"/>
<path fill="#F26201" d="M4099 673 c-13 -16 -12 -17 4 -4 9 7 17 15 17 17 0 8 -8 3 -21 -13z"/>
<path fill="#F26201" d="M6588 653 c12 -2 32 -2 45 0 12 2 2 4 -23 4 -25 0 -35 -2 -22 -4z"/>
<path fill="#F26201" d="M2958 613 c7 -3 16 -2 19 1 4 3 -2 6 -13 5 -11 0 -14 -3 -6 -6z"/>
<path fill="#F26201" d="M6798 593 c17 -2 47 -2 65 0 17 2 3 4 -33 4 -36 0 -50 -2 -32 -4z"/>
<path fill="#F26201" d="M6808 443 c12 -2 32 -2 45 0 12 2 2 4 -23 4 -25 0 -35 -2 -22 -4z"/>
<path fill="#FFFFFF" d="M2470 1080 c0 -183 -8 -235 -41 -256 -8 -5 -61 -11 -119 -14 l-105
-5 -3 -89 -3 -88 138 4 c119 3 145 7 185 27 100 48 119 109 126 389 l4 212
-91 0 -91 0 0 -180z"/>
<path fill="#FFFFFF" d="M4200 934 l0 -315 288 3 c283 3 288 3 337 28 38 19 55 35 73 70 41
82 18 191 -48 225 -28 15 -41 35 -21 35 16 0 51 85 51 123 0 55 -24 104 -62
127 -31 19 -50 20 -325 20 l-293 0 0 -316z m481 146 c23 -13 25 -43 3 -64 -13
-13 -42 -16 -160 -16 l-144 0 0 45 0 45 141 0 c77 0 149 -5 160 -10z m37 -207
c16 -23 15 -48 -4 -67 -13 -13 -43 -16 -175 -16 l-159 0 0 53 0 52 162 -3
c138 -2 165 -5 176 -19z"/>
<path fill="#FFFFFF" d="M3719 1089 c-177 -10 -229 -44 -229 -150 0 -46 5 -61 25 -83 38 -41
67 -47 264 -56 184 -8 215 -16 192 -44 -30 -35 -290 -28 -317 9 -8 11 -32 15
-94 15 l-82 0 6 -32 c3 -18 13 -43 22 -56 37 -56 182 -88 359 -79 194 9 265
48 272 149 5 64 -10 95 -56 122 -28 16 -62 20 -222 27 -104 4 -194 11 -199 14
-18 11 -10 35 13 39 109 23 238 15 268 -15 15 -15 34 -19 99 -19 76 0 80 1 80
23 0 39 -38 87 -85 108 -57 25 -172 36 -316 28z"/>
<path fill="#FFFFFF" d="M2910 1084 c-119 -23 -180 -75 -200 -169 -14 -69 -6 -138 23 -191 48
-86 224 -130 427 -106 188 22 245 69 257 211 10 117 -26 188 -116 229 -52 24
-68 26 -211 28 -85 1 -166 0 -180 -2z m269 -155 c52 -12 70 -32 71 -76 0 -69
-48 -87 -219 -81 -131 4 -151 15 -151 83 0 48 13 64 63 75 47 12 185 11 236
-1z"/>
<path fill="#FFFFFF" d="M5147 1075 c-106 -29 -154 -86 -164 -194 -12 -131 40 -211 161 -247
95 -29 318 -26 407 4 67 23 110 58 127 102 30 79 21 205 -19 259 -27 37 -81
66 -147 80 -72 15 -305 12 -365 -4z m311 -146 c52 -11 72 -34 72 -82 -1 -58
-47 -77 -191 -77 -158 0 -201 23 -184 99 8 37 32 58 70 64 61 8 185 7 233 -4z"/>
<path fill="#FFFFFF" d="M6026 1075 c-21 -7 -55 -27 -76 -44 -37 -29 -39 -30 -45 -11 -3 11
-3 29 0 40 6 19 2 20 -69 20 l-76 0 0 -225 0 -225 80 0 80 0 0 94 c0 107 9
139 48 172 52 45 192 55 250 17 38 -24 52 -72 52 -183 l0 -100 80 0 80 0 0
128 c0 202 -35 278 -146 316 -59 20 -203 21 -258 1z"/>
<path fill="#FFFFFF" d="M6622 1072 c-96 -35 -126 -80 -126 -192 0 -89 17 -129 72 -165 53
-35 130 -48 248 -43 84 4 112 9 154 30 l52 26 -5 -36 c-9 -56 -51 -88 -126
-97 -94 -11 -179 2 -207 32 -20 21 -33 25 -98 27 l-76 3 0 -37 c0 -55 35 -100
104 -135 54 -26 71 -30 181 -33 203 -7 293 27 351 130 27 50 29 61 31 183 2
72 4 172 6 223 l2 92 -77 0 c-77 0 -78 0 -78 -25 l0 -26 -47 28 c-45 26 -56
28 -178 31 -106 2 -140 -1 -183 -16z m371 -141 c23 -9 27 -16 27 -51 0 -35 -4
-42 -27 -51 -38 -15 -262 -15 -291 0 -28 15 -45 47 -37 70 6 19 38 36 85 45
41 8 213 -1 243 -13z"/>
</svg>
