<svg xmlns="http://www.w3.org/2000/svg" viewBox="0 0 733 172">
<path fill="#FFFFFF" d="M575 1419 c-225 -82 -413 -153 -418 -158 -12 -12 3 -181 16 -181 5 0
163 56 351 124 188 69 353 128 369 131 l27 7 0 -366 c0 -344 -1 -366 -18 -375
-24 -13 -543 -201 -554 -201 -4 0 -8 56 -8 124 0 69 -4 127 -9 130 -9 6 -147
-41 -169 -57 -9 -7 -12 -66 -12 -234 l0 -225 29 5 c16 4 193 67 393 140 199
74 381 140 403 147 38 11 49 8 225 -55 416 -152 479 -174 558 -204 46 -17 90
-31 98 -31 12 0 14 80 14 553 0 303 -4 557 -8 563 -4 7 -77 37 -162 69 -85 31
-220 81 -300 110 -310 114 -371 135 -392 134 -13 0 -207 -67 -433 -150z m826
-180 l279 -102 0 -138 0 -138 -142 50 c-79 27 -208 73 -288 102 l-145 54 -3
136 c-2 96 1 137 9 137 6 0 136 -46 290 -101z m7 -479 l267 -97 3 -132 c2 -81
-1 -131 -7 -131 -6 0 -20 4 -33 10 -13 5 -131 48 -262 95 -132 48 -248 91
-258 96 -16 9 -18 25 -18 138 0 126 1 129 21 124 11 -3 141 -49 287 -103z"/>
<path fill="#FFFFFF" d="M2470 1081 c0 -188 -8 -233 -44 -254 -11 -6 -66 -14 -121 -17 l-100
-5 0 -85 0 -85 141 0 c139 0 141 0 189 30 93 57 115 138 115 418 l0 177 -90 0
-90 0 0 -179z"/>
<path fill="#FFFFFF" d="M4208 1254 c-5 -4 -8 -149 -8 -321 l0 -314 288 3 c283 3 288 3 337
28 38 19 55 35 73 70 41 83 21 183 -45 223 -31 18 -32 21 -19 36 46 51 59 154
26 208 -39 64 -54 67 -365 71 -154 2 -283 0 -287 -4z m476 -179 c17 -17 13
-54 -6 -67 -7 -4 -77 -8 -155 -8 l-143 0 0 38 c0 21 3 42 7 45 3 4 68 7 144 7
109 0 141 -3 153 -15z m36 -204 c14 -28 13 -38 -10 -61 -18 -18 -33 -20 -175
-20 l-155 0 0 50 0 50 165 0 c152 0 165 -1 175 -19z"/>
<path fill="#FFFFFF" d="M3669 1089 c-133 -17 -179 -55 -179 -148 0 -112 35 -130 283 -142 98
-5 183 -11 188 -14 15 -10 10 -33 -8 -39 -21 -6 -110 -9 -205 -7 -54 1 -72 5
-88 21 -17 17 -33 20 -101 20 l-81 0 6 -32 c15 -73 64 -107 190 -129 87 -15
283 -7 352 15 85 27 114 65 114 153 0 38 -5 50 -33 78 -38 38 -53 41 -288 51
-155 6 -181 12 -161 37 29 34 261 29 287 -7 10 -12 30 -16 94 -16 77 0 81 1
81 23 0 38 -38 87 -83 107 -80 35 -230 47 -368 29z"/>
<path fill="#FFFFFF" d="M6720 1089 c-165 -15 -230 -77 -230 -219 1 -136 94 -200 289 -200
111 1 172 12 213 41 l28 20 0 -21 c0 -30 -25 -75 -52 -92 -32 -21 -115 -30
-193 -22 -55 6 -71 12 -93 35 -25 27 -33 29 -99 29 l-73 0 0 -35 c0 -122 119
-181 350 -173 116 3 131 6 186 33 64 33 104 80 124 150 7 22 14 131 17 243 l5
202 -81 0 -81 0 0 -27 c0 -24 -2 -25 -17 -11 -48 39 -167 59 -293 47z m277
-164 c31 -20 31 -68 1 -89 -29 -20 -260 -23 -297 -3 -63 32 -37 96 45 108 74
11 223 2 251 -16z"/>
<path fill="#FFFFFF" d="M2870 1074 c-102 -28 -145 -72 -161 -163 -14 -75 2 -162 36 -207 51
-66 198 -102 375 -90 136 8 196 28 247 81 35 37 42 52 48 100 9 66 0 147 -21
186 -17 33 -66 71 -114 89 -56 20 -342 23 -410 4z m344 -157 c51 -34 47 -105
-8 -131 -50 -23 -238 -23 -286 2 -31 15 -35 22 -38 63 -3 53 9 68 66 80 65 14
237 4 266 -14z"/>
<path fill="#FFFFFF" d="M5147 1076 c-121 -35 -162 -93 -162 -226 1 -125 32 -172 141 -212 51
-19 80 -22 209 -22 206 0 297 30 339 113 20 39 29 139 16 194 -14 66 -44 103
-109 135 -53 25 -64 27 -221 29 -117 2 -179 -2 -213 -11z m347 -160 c21 -13
26 -24 26 -61 0 -25 -6 -50 -15 -59 -21 -21 -89 -29 -206 -24 -97 4 -103 5
-126 33 -19 22 -23 35 -19 59 13 62 54 76 213 72 75 -2 108 -7 127 -20z"/>
<path fill="#FFFFFF" d="M6020 1074 c-25 -9 -60 -30 -77 -47 l-33 -31 0 42 0 42 -75 0 -75 0
0 -225 0 -225 80 0 80 0 0 96 c0 80 4 103 22 135 29 52 75 73 163 73 134 0
165 -38 165 -201 l0 -103 80 0 80 0 0 128 c0 190 -26 258 -113 304 -56 29
-229 36 -297 12z"/>
</svg>
