<svg xmlns="http://www.w3.org/2000/svg" viewBox="0 0 547 285">
<path fill="#F26201" d="M2430 2594 c-157 -58 -350 -129 -430 -158 l-145 -54 -3 -93 c-1 -51
1 -95 5 -99 4 -5 179 55 388 131 208 76 383 139 387 139 4 0 8 -173 8 -384 l0
-384 -37 -13 c-21 -6 -152 -54 -292 -105 -139 -52 -257 -91 -262 -88 -5 3 -9
63 -9 135 0 74 -4 129 -9 129 -6 0 -48 -14 -95 -31 l-86 -31 0 -239 c0 -185 3
-239 13 -239 6 0 66 21 132 46 66 25 149 56 185 69 126 45 406 147 483 175
l77 29 83 -30 c45 -17 111 -41 147 -54 84 -30 338 -123 507 -186 72 -27 136
-49 142 -49 8 0 10 169 9 586 l-3 586 -90 33 c-352 131 -787 285 -802 284 -10
0 -146 -48 -303 -105z m705 -236 c154 -56 286 -106 293 -111 8 -7 12 -48 12
-142 0 -72 -2 -134 -5 -137 -6 -6 -150 43 -425 145 l-175 64 -3 129 c-3 127 0
154 15 154 4 0 134 -46 288 -102z m65 -518 c102 -37 198 -73 213 -79 l28 -11
-3 -132 c-3 -127 -4 -133 -23 -130 -11 2 -146 49 -300 106 l-280 101 -3 125
c-1 68 0 130 2 137 6 14 28 7 366 -117z"/>
<path fill="#F26201" d="M973 813 c9 -2 23 -2 30 0 6 3 -1 5 -18 5 -16 0 -22 -2 -12 -5z"/>
<path fill="#F26201" d="M1093 813 c9 -2 25 -2 35 0 9 3 1 5 -18 5 -19 0 -27 -2 -17 -5z"/>
<path fill="#F26201" d="M1898 813 c6 -2 18 -2 25 0 6 3 1 5 -13 5 -14 0 -19 -2 -12 -5z"/>
<path fill="#F26201" d="M3343 813 c9 -2 23 -2 30 0 6 3 -1 5 -18 5 -16 0 -22 -2 -12 -5z"/>
<path fill="#F26201" d="M3468 813 c6 -2 18 -2 25 0 6 3 1 5 -13 5 -14 0 -19 -2 -12 -5z"/>
<path fill="#F26201" d="M4193 813 c9 -2 23 -2 30 0 6 3 -1 5 -18 5 -16 0 -22 -2 -12 -5z"/>
<path fill="#F26201" d="M4288 813 c6 -2 18 -2 25 0 6 3 1 5 -13 5 -14 0 -19 -2 -12 -5z"/>
<path fill="#F26201" d="M4848 813 c6 -2 18 -2 25 0 6 3 1 5 -13 5 -14 0 -19 -2 -12 -5z"/>
<path fill="#F26201" d="M4958 813 c6 -2 18 -2 25 0 6 3 1 5 -13 5 -14 0 -19 -2 -12 -5z"/>
<path fill="#F26201" d="M3847 803 c-3 -5 18 -7 46 -5 92 5 104 9 30 11 -39 0 -74 -2 -76 -6z"/>
<path fill="#F26201" d="M5208 803 c23 -2 59 -2 80 0 20 2 1 4 -43 4 -44 0 -61 -2 -37 -4z"/>
<path fill="#F26201" d="M1481 684 c0 -11 3 -14 6 -6 3 7 2 16 -1 19 -3 4 -6 -2 -5 -13z"/>
<path fill="#F26201" d="M2141 664 c0 -11 3 -14 6 -6 3 7 2 16 -1 19 -3 4 -6 -2 -5 -13z"/>
<path fill="#F26201" d="M1003 653 c15 -2 37 -2 50 0 12 2 0 4 -28 4 -27 0 -38 -2 -22 -4z"/>
<path fill="#F26201" d="M3393 653 c15 -2 37 -2 50 0 12 2 0 4 -28 4 -27 0 -38 -2 -22 -4z"/>
<path fill="#F26201" d="M1481 634 c0 -11 3 -14 6 -6 3 7 2 16 -1 19 -3 4 -6 -2 -5 -13z"/>
<path fill="#F26201" d="M5130 646 c0 -2 8 -10 18 -17 15 -13 16 -12 3 4 -13 16 -21 21 -21
13z"/>
<path fill="#F26201" d="M1913 623 c9 -2 23 -2 30 0 6 3 -1 5 -18 5 -16 0 -22 -2 -12 -5z"/>
<path fill="#F26201" d="M673 565 c0 -33 2 -45 4 -27 2 18 2 45 0 60 -2 15 -4 0 -4 -33z"/>
<path fill="#F26201" d="M4049 603 c-13 -16 -12 -17 4 -4 16 13 21 21 13 21 -2 0 -10 -8 -17
-17z"/>
<path fill="#F26201" d="M1413 560 c0 -30 2 -43 4 -27 2 15 2 39 0 55 -2 15 -4 2 -4 -28z"/>
<path fill="#F26201" d="M1500 576 c0 -2 8 -10 18 -17 15 -13 16 -12 3 4 -13 16 -21 21 -21
13z"/>
<path fill="#F26201" d="M4544 440 c0 -58 1 -81 3 -52 2 28 2 76 0 105 -2 28 -3 5 -3 -53z"/>
<path fill="#F26201" d="M4374 435 c0 -55 1 -76 3 -47 2 29 2 74 0 100 -2 26 -3 2 -3 -53z"/>
<path fill="#F26201" d="M1678 513 c7 -3 16 -2 19 1 4 3 -2 6 -13 5 -11 0 -14 -3 -6 -6z"/>
<path fill="#F26201" d="M2161 504 c0 -11 3 -14 6 -6 3 7 2 16 -1 19 -3 4 -6 -2 -5 -13z"/>
<path fill="#F26201" d="M1878 503 c7 -3 16 -2 19 1 4 3 -2 6 -13 5 -11 0 -14 -3 -6 -6z"/>
<path fill="#F26201" d="M1986 487 c3 -10 9 -15 12 -12 3 3 0 11 -7 18 -10 9 -11 8 -5 -6z"/>
<path fill="#F26201" d="M3518 483 c7 -3 16 -2 19 1 4 3 -2 6 -13 5 -11 0 -14 -3 -6 -6z"/>
<path fill="#F26201" d="M2161 464 c0 -11 3 -14 6 -6 3 7 2 16 -1 19 -3 4 -6 -2 -5 -13z"/>
<path fill="#F26201" d="M5322 455 c0 -16 2 -22 5 -12 2 9 2 23 0 30 -3 6 -5 -1 -5 -18z"/>
<path fill="#F26201" d="M4640 456 c0 -2 8 -10 18 -17 15 -13 16 -12 3 4 -13 16 -21 21 -21
13z"/>
<path fill="#F26201" d="M1758 443 c7 -3 16 -2 19 1 4 3 -2 6 -13 5 -11 0 -14 -3 -6 -6z"/>
<path fill="#F26201" d="M1798 443 c6 -2 18 -2 25 0 6 3 1 5 -13 5 -14 0 -19 -2 -12 -5z"/>
<path fill="#F26201" d="M1873 443 c9 -2 23 -2 30 0 6 3 -1 5 -18 5 -16 0 -22 -2 -12 -5z"/>
<path fill="#F26201" d="M534 398 l-19 -23 23 19 c21 18 27 26 19 26 -2 0 -12 -10 -23 -22z"/>
<path fill="#F26201" d="M3719 393 l-24 -28 28 24 c15 14 27 26 27 28 0 8 -8 1 -31 -24z"/>
<path fill="#F26201" d="M2919 383 c-13 -16 -12 -17 4 -4 16 13 21 21 13 21 -2 0 -10 -8 -17
-17z"/>
<path fill="#F26201" d="M4838 373 c6 -2 18 -2 25 0 6 3 1 5 -13 5 -14 0 -19 -2 -12 -5z"/>
<path fill="#F26201" d="M4968 373 c7 -3 16 -2 19 1 4 3 -2 6 -13 5 -11 0 -14 -3 -6 -6z"/>
<path fill="#F26201" d="M378 333 c7 -3 16 -2 19 1 4 3 -2 6 -13 5 -11 0 -14 -3 -6 -6z"/>
<path fill="#F26201" d="M1793 313 c20 -2 54 -2 75 0 20 2 3 4 -38 4 -41 0 -58 -2 -37 -4z"/>
<path fill="#F26201" d="M4923 293 c15 -2 39 -2 55 0 15 2 2 4 -28 4 -30 0 -43 -2 -27 -4z"/>
<path fill="#F26201" d="M5244 228 l-19 -23 23 19 c12 11 22 21 22 23 0 8 -8 2 -26 -19z"/>
<path fill="#F26201" d="M5008 143 c7 -3 16 -2 19 1 4 3 -2 6 -13 5 -11 0 -14 -3 -6 -6z"/>
<path fill="#000010" d="M437 983 c-4 -3 -7 -91 -7 -195 0 -198 -7 -236 -47 -254 -10 -4 -65
-10 -123 -13 l-105 -6 0 -90 0 -90 131 0 c154 1 204 16 258 75 53 59 59 90 63
348 l5 232 -85 0 c-46 0 -87 -3 -90 -7z"/>
<path fill="#000010" d="M2230 655 l0 -325 288 0 c166 0 303 4 324 10 48 14 97 55 114 97 20
47 18 143 -3 173 -22 32 -55 59 -70 60 -16 0 -17 16 -2 26 20 12 49 89 49 132
0 67 -21 106 -72 131 -42 20 -58 21 -336 21 l-292 0 0 -325z m494 149 c10 -4
16 -18 16 -39 0 -21 -6 -35 -16 -39 -9 -3 -83 -6 -165 -6 l-149 0 0 45 0 45
149 0 c82 0 156 -3 165 -6z m27 -204 c13 -7 19 -21 19 -45 0 -24 -6 -38 -19
-45 -11 -6 -89 -10 -180 -10 l-161 0 0 55 0 55 161 0 c91 0 169 -4 180 -10z"/>
<path fill="#000010" d="M932 809 c-103 -10 -178 -42 -218 -94 -27 -35 -29 -46 -32 -135 -3
-84 -1 -103 18 -139 47 -93 156 -127 386 -119 196 7 262 34 309 127 13 26 16
54 13 132 -3 108 -15 133 -78 177 -70 47 -230 68 -398 51z m192 -158 c89 -10
116 -29 116 -83 0 -71 -37 -88 -195 -88 -161 0 -195 16 -195 93 0 74 84 98
274 78z"/>
<path fill="#000010" d="M1666 810 c-74 -12 -139 -43 -161 -77 -12 -17 -17 -45 -17 -81 0 -45
5 -59 28 -83 39 -41 68 -47 279 -59 104 -6 194 -15 199 -20 34 -34 -98 -59
-240 -45 -56 5 -80 12 -92 26 -14 16 -30 19 -101 19 l-84 0 6 -37 c8 -47 48
-88 106 -109 61 -22 326 -31 414 -14 115 22 158 65 158 154 0 115 -23 128
-256 139 -230 11 -245 13 -245 36 0 27 18 31 156 31 111 0 126 -2 144 -20 17
-17 33 -20 100 -20 l80 0 0 31 c0 44 -52 93 -121 113 -65 20 -270 29 -353 16z"/>
<path fill="#000010" d="M3295 809 c-174 -17 -244 -77 -253 -214 -13 -204 82 -275 368 -275
272 0 370 66 370 249 0 153 -75 221 -264 241 -101 11 -95 11 -221 -1z m270
-172 c29 -15 35 -27 35 -73 0 -72 -17 -79 -191 -79 -135 0 -150 2 -168 20 -33
34 -32 108 2 127 48 27 273 31 322 5z"/>
<path fill="#000010" d="M4185 810 c-68 -10 -115 -31 -153 -69 l-32 -33 0 47 0 46 -77 -3 -78
-3 -3 -210 c-1 -116 0 -220 3 -232 5 -21 11 -23 85 -23 l80 0 0 98 c1 129 20
174 86 203 38 17 62 20 130 17 74 -3 86 -6 109 -29 34 -33 44 -81 45 -196 l0
-93 80 0 80 0 0 138 c0 205 -30 277 -132 321 -51 22 -153 31 -223 21z"/>
<path fill="#000010" d="M4822 810 c-83 -9 -151 -42 -182 -87 -26 -38 -38 -131 -26 -198 11
-55 68 -112 130 -129 127 -35 278 -27 370 19 l49 25 -7 -32 c-14 -73 -55 -101
-162 -113 -82 -10 -168 9 -193 41 -17 22 -26 24 -101 24 l-82 0 7 -42 c8 -46
42 -99 80 -124 61 -40 214 -60 338 -44 105 13 164 38 211 90 55 61 67 116 73
353 l6 207 -88 0 c-76 0 -86 -2 -81 -16 11 -28 -4 -35 -32 -16 -15 11 -43 24
-62 30 -50 15 -174 21 -248 12z m322 -169 c26 -22 18 -82 -14 -98 -34 -17
-276 -17 -309 0 -49 25 -43 93 9 109 46 13 295 5 314 -11z"/>
</svg>
